<svg width="128" height="128" viewBox="0 0 128 128" fill="none" xmlns="http://www.w3.org/2000/svg">
  <rect width="128" height="128" rx="24" fill="url(#paint0_linear_23371_4333)"/>
  <path d="M100.968 76.0802C101.101 76.8269 101.394 77.4802 101.848 78.0402C102.301 78.6002 102.888 79.0402 103.608 79.3602C104.354 79.6535 105.221 79.8002 106.208 79.8002C107.754 79.8002 108.914 79.4535 109.688 78.7602C110.461 78.0402 110.848 77.1735 110.848 76.1602C110.848 75.3602 110.608 74.6935 110.128 74.1602C109.648 73.6269 108.968 73.1735 108.088 72.8002C107.234 72.4269 106.234 72.0669 105.088 71.7202C104.021 71.4002 102.968 71.0535 101.928 70.6802C100.888 70.3069 99.9411 69.8402 99.0878 69.2802C98.2344 68.7202 97.5544 68.0002 97.0478 67.1202C96.5678 66.2135 96.3278 65.0802 96.3278 63.7202C96.3278 62.0135 96.7411 60.5602 97.5678 59.3602C98.4211 58.1602 99.5811 57.2535 101.048 56.6402C102.514 56.0269 104.208 55.7202 106.128 55.7202C107.754 55.7202 109.221 55.9602 110.528 56.4402C111.834 56.8935 112.928 57.5735 113.808 58.4802C114.714 59.3602 115.381 60.4535 115.808 61.7602L110.808 63.1202C110.674 62.5335 110.381 62.0269 109.928 61.6002C109.474 61.1735 108.928 60.8402 108.288 60.6002C107.648 60.3335 106.954 60.2002 106.208 60.2002C105.408 60.1735 104.674 60.2935 104.008 60.5602C103.341 60.8269 102.808 61.2135 102.408 61.7202C102.008 62.2269 101.808 62.8135 101.808 63.4802C101.808 64.2269 102.034 64.8269 102.488 65.2802C102.941 65.7069 103.541 66.0802 104.288 66.4002C105.034 66.6935 105.874 66.9869 106.808 67.2802C107.928 67.6002 109.048 67.9735 110.168 68.4002C111.288 68.8002 112.314 69.3202 113.248 69.9602C114.181 70.5735 114.928 71.3602 115.488 72.3202C116.074 73.2802 116.368 74.4935 116.368 75.9602C116.368 77.5069 115.994 78.9069 115.248 80.1602C114.528 81.4135 113.434 82.4135 111.968 83.1602C110.501 83.9069 108.661 84.2802 106.448 84.2802C104.634 84.2802 102.981 84.0135 101.488 83.4802C100.021 82.9469 98.8078 82.1735 97.8478 81.1602C96.8878 80.1202 96.2611 78.8935 95.9678 77.4802L100.968 76.0802Z" fill="white"/>
  <path d="M77.2959 76.0802C77.4292 76.8269 77.7226 77.4802 78.1759 78.0402C78.6292 78.6002 79.2159 79.0402 79.9359 79.3602C80.6826 79.6535 81.5492 79.8002 82.5359 79.8002C84.0826 79.8002 85.2426 79.4535 86.0159 78.7602C86.7892 78.0402 87.1759 77.1735 87.1759 76.1602C87.1759 75.3602 86.9359 74.6935 86.4559 74.1602C85.9759 73.6269 85.2959 73.1735 84.4159 72.8002C83.5626 72.4269 82.5626 72.0669 81.4159 71.7202C80.3492 71.4002 79.2959 71.0535 78.2559 70.6802C77.2159 70.3069 76.2692 69.8402 75.4159 69.2802C74.5626 68.7202 73.8826 68.0002 73.3759 67.1202C72.8959 66.2135 72.6559 65.0802 72.6559 63.7202C72.6559 62.0135 73.0692 60.5602 73.8959 59.3602C74.7492 58.1602 75.9092 57.2535 77.3759 56.6402C78.8426 56.0269 80.5359 55.7202 82.4559 55.7202C84.0826 55.7202 85.5492 55.9602 86.8559 56.4402C88.1626 56.8935 89.2559 57.5735 90.1359 58.4802C91.0426 59.3602 91.7092 60.4535 92.1359 61.7602L87.1359 63.1202C87.0026 62.5335 86.7092 62.0269 86.2559 61.6002C85.8026 61.1735 85.2559 60.8402 84.6159 60.6002C83.9759 60.3335 83.2826 60.2002 82.5359 60.2002C81.7359 60.1735 81.0026 60.2935 80.3359 60.5602C79.6692 60.8269 79.1359 61.2135 78.7359 61.7202C78.3359 62.2269 78.1359 62.8135 78.1359 63.4802C78.1359 64.2269 78.3626 64.8269 78.8159 65.2802C79.2692 65.7069 79.8692 66.0802 80.6159 66.4002C81.3626 66.6935 82.2026 66.9869 83.1359 67.2802C84.2559 67.6002 85.3759 67.9735 86.4959 68.4002C87.6159 68.8002 88.6426 69.3202 89.5759 69.9602C90.5092 70.5735 91.2559 71.3602 91.8159 72.3202C92.4026 73.2802 92.6959 74.4935 92.6959 75.9602C92.6959 77.5069 92.3226 78.9069 91.5759 80.1602C90.8559 81.4135 89.7626 82.4135 88.2959 83.1602C86.8292 83.9069 84.9892 84.2802 82.7759 84.2802C80.9626 84.2802 79.3092 84.0135 77.8159 83.4802C76.3492 82.9469 75.1359 82.1735 74.1759 81.1602C73.2159 80.1202 72.5892 78.8935 72.2959 77.4802L77.2959 76.0802Z" fill="white"/>
  <path d="M41.7432 70.0002C41.7432 67.8935 42.1032 65.9735 42.8232 64.2402C43.5432 62.4802 44.5432 60.9735 45.8232 59.7202C47.1032 58.4402 48.5965 57.4535 50.3032 56.7602C52.0365 56.0669 53.9032 55.7202 55.9032 55.7202C58.7832 55.7202 61.3298 56.4135 63.5432 57.8002C65.7832 59.1602 67.4632 61.1202 68.5832 63.6802L64.0632 65.0002C63.4765 63.8802 62.7432 62.9735 61.8632 62.2802C61.0098 61.5869 60.0765 61.0802 59.0632 60.7602C58.0498 60.4402 57.0232 60.2802 55.9832 60.2802C54.2765 60.2802 52.7565 60.6935 51.4232 61.5202C50.0898 62.3202 49.0498 63.4535 48.3032 64.9202C47.5832 66.3869 47.2232 68.0802 47.2232 70.0002C47.2232 71.9202 47.5832 73.6135 48.3032 75.0802C49.0498 76.5202 50.0898 77.6535 51.4232 78.4802C52.7565 79.3069 54.2765 79.7202 55.9832 79.7202C57.0498 79.7202 58.1032 79.5602 59.1432 79.2402C60.2098 78.8935 61.1965 78.3202 62.1032 77.5202C63.0098 76.7202 63.7832 75.6535 64.4232 74.3202L68.8632 75.5602C67.7165 78.4669 66.0098 80.6535 63.7432 82.1202C61.4765 83.5602 58.8632 84.2802 55.9032 84.2802C53.9032 84.2802 52.0365 83.9335 50.3032 83.2402C48.5965 82.5469 47.1032 81.5602 45.8232 80.2802C44.5432 79.0002 43.5432 77.4935 42.8232 75.7602C42.1032 74.0002 41.7432 72.0802 41.7432 70.0002Z" fill="white"/>
  <path d="M102.777 93.2002H116.409V95.9122H111.225V110H107.985V95.9122H102.777V93.2002Z" fill="#E0CBF4"/>
  <path d="M100.799 95.9122H92.2312V100.184H98.6392V102.8H92.2312V107.288H100.799V110H88.9912V93.2002H100.799V95.9122Z" fill="#E0CBF4"/>
  <path d="M77.1406 105.248C77.2206 105.696 77.3966 106.088 77.6686 106.424C77.9406 106.76 78.2926 107.024 78.7246 107.216C79.1726 107.392 79.6926 107.48 80.2846 107.48C81.2126 107.48 81.9086 107.272 82.3726 106.856C82.8366 106.424 83.0686 105.904 83.0686 105.296C83.0686 104.816 82.9246 104.416 82.6366 104.096C82.3486 103.776 81.9406 103.504 81.4126 103.28C80.9006 103.056 80.3006 102.84 79.6126 102.632C78.9726 102.44 78.3406 102.232 77.7166 102.008C77.0926 101.784 76.5246 101.504 76.0126 101.168C75.5006 100.832 75.0926 100.4 74.7886 99.8722C74.5006 99.3282 74.3566 98.6482 74.3566 97.8322C74.3566 96.8082 74.6046 95.9362 75.1006 95.2162C75.6126 94.4962 76.3086 93.9522 77.1886 93.5842C78.0686 93.2162 79.0846 93.0322 80.2366 93.0322C81.2126 93.0322 82.0926 93.1762 82.8766 93.4642C83.6606 93.7362 84.3166 94.1442 84.8446 94.6882C85.3886 95.2162 85.7886 95.8722 86.0446 96.6562L83.0446 97.4722C82.9646 97.1202 82.7886 96.8162 82.5166 96.5602C82.2446 96.3042 81.9166 96.1042 81.5326 95.9602C81.1486 95.8002 80.7326 95.7202 80.2846 95.7202C79.8046 95.7042 79.3646 95.7762 78.9646 95.9362C78.5646 96.0962 78.2446 96.3282 78.0046 96.6322C77.7646 96.9362 77.6446 97.2882 77.6446 97.6882C77.6446 98.1362 77.7806 98.4962 78.0526 98.7682C78.3246 99.0242 78.6846 99.2482 79.1326 99.4402C79.5806 99.6162 80.0846 99.7922 80.6446 99.9682C81.3166 100.16 81.9886 100.384 82.6606 100.64C83.3326 100.88 83.9486 101.192 84.5086 101.576C85.0686 101.944 85.5166 102.416 85.8526 102.992C86.2046 103.568 86.3806 104.296 86.3806 105.176C86.3806 106.104 86.1566 106.944 85.7086 107.696C85.2766 108.448 84.6206 109.048 83.7406 109.496C82.8606 109.944 81.7566 110.168 80.4286 110.168C79.3406 110.168 78.3486 110.008 77.4526 109.688C76.5726 109.368 75.8446 108.904 75.2686 108.296C74.6926 107.672 74.3166 106.936 74.1406 106.088L77.1406 105.248Z" fill="#E0CBF4"/>
  <path d="M71.9945 95.9122H63.4265V100.184H69.8345V102.8H63.4265V107.288H71.9945V110H60.1865V93.2002H71.9945V95.9122Z" fill="#E0CBF4"/>
  <path d="M54.0605 98.3842C54.0605 97.6322 53.8285 97.0322 53.3645 96.5842C52.9165 96.1362 52.2125 95.9122 51.2525 95.9122H47.6765V100.88H51.2525C51.8925 100.88 52.4205 100.784 52.8365 100.592C53.2525 100.384 53.5565 100.096 53.7485 99.7282C53.9565 99.3442 54.0605 98.8962 54.0605 98.3842ZM51.3485 93.2002C52.7085 93.2002 53.8285 93.4402 54.7085 93.9202C55.6045 94.3842 56.2685 95.0162 56.7005 95.8162C57.1485 96.6002 57.3725 97.4562 57.3725 98.3842C57.3725 99.0082 57.2605 99.6322 57.0365 100.256C56.8125 100.864 56.4605 101.424 55.9805 101.936C55.5005 102.432 54.8765 102.832 54.1085 103.136C53.3565 103.44 52.4365 103.592 51.3485 103.592H47.6765V110H44.4365V93.2002H51.3485ZM53.1725 102.512L57.7085 110H54.0845L49.7405 102.512H53.1725Z" fill="#E0CBF4"/>

  <defs>
    <linearGradient id="paint0_linear_23371_4333" x1="123" y1="0" x2="-5" y2="128" gradientUnits="userSpaceOnUse">
    <stop stop-color="#673399"/>
    <stop offset="1" stop-color="#4D1B7D"/>
    </linearGradient>
  </defs>
</svg>
